<svg width="30" height="23" viewBox="0 0 30 23" fill="none" xmlns="http://www.w3.org/2000/svg">
<path d="M29.0544 0.577148C19.6868 -1.60179 10.3191 3.24943 0.945576 1.06462C0.422866 0.947156 0 1.24669 0 1.7694V20.2345C0 20.7573 0.422866 21.3035 0.945576 21.4268C10.3132 23.6057 19.6809 18.7545 29.0544 20.9393C29.5771 21.0627 30 20.7631 30 20.2404V1.77527C30 1.24669 29.5771 0.700484 29.0544 0.577148Z" fill="#0B67B2"/>
<path d="M30 1.76939C30 1.24668 29.5771 0.700475 29.0544 0.577139C28.9957 0.565392 28.9311 0.547773 28.8724 0.536027L18.4358 6.89076V0.359833C16.1453 0.63587 13.8547 1.01175 11.5642 1.28779V6.82029L2.64291 1.38763C2.07909 1.30541 1.51527 1.19969 0.945576 1.06461C0.422866 0.947147 0 1.24668 0 1.76939V2.991L7.51762 7.56618H0V14.4377H7.86413L0 19.2244V20.2345C0 20.7573 0.422866 21.3035 0.945576 21.4268C1.12177 21.4679 1.29796 21.5031 1.46829 21.5384L11.5583 15.3892V21.6382C13.8489 21.3622 16.1394 20.9863 18.4299 20.7103V15.3128L27.0576 20.5752C27.7212 20.6633 28.3849 20.7807 29.0486 20.9393C29.5713 21.0627 29.9941 20.7631 29.9941 20.2404V19.1598L22.2475 14.4436H29.9941V7.57205H22.594L29.9941 3.06735C30 2.62686 30 2.19813 30 1.76939V1.76939Z" fill="#FF473E"/>
<path d="M24.2502 14.9663L30 18.4667V19.841L21.9949 14.9663H18.982L28.6316 20.8453C27.6566 20.6398 26.6758 20.5106 25.7009 20.4342L18.9644 16.3348V20.6574C18.612 20.6985 18.2596 20.7396 17.9072 20.7866V13.915H30V14.9722H24.2502V14.9663ZM11.0356 21.7087C11.388 21.6676 11.7404 21.6265 12.0928 21.5795V13.9092H0V14.9663H5.86727L0 18.5372V19.9115L8.12255 14.9663H11.0356V15.0251L0.687157 21.3269C0.769381 21.3681 0.857479 21.4033 0.945576 21.4268C1.40955 21.5325 1.87353 21.6265 2.33751 21.7028L11.0356 16.4052V21.7087V21.7087ZM0 7.03759V8.09476H12.0928V1.22318C11.7404 1.27017 11.388 1.31128 11.0356 1.35239V5.81598L4.03485 1.55208C3.02467 1.46398 2.01449 1.31715 1.00431 1.08223L10.7831 7.03759H7.77016L0 2.30384V3.67816L5.52075 7.03759H0ZM18.9644 0.295227C18.612 0.336339 18.2596 0.377451 17.9072 0.424436V8.09476H30V7.03759H24.5967L30 3.74863V2.37432L22.3414 7.03759H19.3285L29.5301 0.82381C29.3892 0.706347 29.2306 0.61825 29.0544 0.577138C28.7079 0.494914 28.3673 0.43031 28.0208 0.365705L18.9644 5.88058V0.295227Z" fill="#E8E8E8"/>
</svg>
